<?xml version="1.0" standalone="no"?>
<!DOCTYPE svg PUBLIC "-//W3C//DTD SVG 20010904//EN"
 "http://www.w3.org/TR/2001/REC-SVG-20010904/DTD/svg10.dtd">
<svg version="1.0" xmlns="http://www.w3.org/2000/svg"
 width="1024.000000pt" height="1024.000000pt" viewBox="0 0 1024.000000 1024.000000"
 preserveAspectRatio="xMidYMid meet">
<metadata>
Created by potrace 1.11, written by Peter Selinger 2001-2013
</metadata>
<g transform="translate(0.000000,1024.000000) scale(0.100000,-0.100000)"
fill="#000000" stroke="none">
<path d="M2745 8306 c-38 -17 -90 -72 -104 -109 -6 -16 -11 -54 -11 -86 0 -66
30 -122 85 -160 185 -126 410 99 284 284 -39 57 -94 85 -164 85 -33 -1 -73 -7
-90 -14z"/>
<path d="M3335 8297 c-122 -69 -140 -240 -33 -331 78 -67 184 -68 263 -3 114
94 94 271 -37 338 -53 27 -141 25 -193 -4z"/>
<path d="M3955 8306 c-38 -17 -90 -72 -104 -109 -6 -16 -11 -54 -11 -86 0 -66
30 -122 85 -160 185 -126 410 99 284 284 -39 57 -94 85 -164 85 -33 -1 -73 -7
-90 -14z"/>
<path d="M2350 4495 l0 -3204 113 -80 c151 -108 380 -244 562 -334 506 -253
1019 -396 1640 -459 169 -17 737 -17 910 0 991 97 1799 433 2555 1062 161 134
496 469 630 630 626 753 968 1572 1060 2540 18 194 24 561 11 765 -44 697
-197 1268 -495 1850 -84 164 -207 374 -244 418 -14 16 -188 17 -3379 17
l-3363 0 0 -3205z m1084 2280 c47 -23 708 -691 732 -740 26 -56 24 -137 -5
-195 -31 -61 -670 -703 -727 -730 -52 -26 -97 -25 -152 1 -51 25 -91 81 -99
137 -11 83 0 98 305 404 l287 288 -282 282 c-287 288 -313 321 -313 390 0 39
30 106 56 129 57 49 137 63 198 34z m2376 -1345 c105 -53 133 -190 57 -277
-57 -65 -33 -63 -722 -63 -603 0 -627 1 -664 20 -132 67 -131 253 1 319 43 21
49 21 666 21 602 0 624 -1 662 -20z"/>
</g>
</svg>
